<svg xmlns="http://www.w3.org/2000/svg" width="32" height="32" viewBox="0 0 32 32">
  <defs>
    <linearGradient id="bgGradient" x1="0%" y1="0%" x2="100%" y2="100%">
      <stop offset="0%" style="stop-color:#8B5CF6"/>
      <stop offset="100%" style="stop-color:#6366F1"/>
    </linearGradient>
  </defs>
  <rect width="32" height="32" rx="8" fill="url(#bgGradient)"/>
  <g transform="translate(6, 6)" fill="none" stroke="white" stroke-width="1.5" stroke-linecap="round" stroke-linejoin="round">
    <path d="M10 1l1.5 4.5L16 7l-4.5 1.5L10 13l-1.5-4.5L4 7l4.5-1.5L10 1z"/>
    <path d="M4 14l.75 2.25L7 17l-2.25.75L4 20l-.75-2.25L1 17l2.25-.75L4 14z"/>
    <path d="M17 12l.5 1.5 1.5.5-1.5.5-.5 1.5-.5-1.5-1.5-.5 1.5-.5.5-1.5z"/>
  </g>
</svg>
